<svg xmlns="http://www.w3.org/2000/svg" xmlns:xlink="http://www.w3.org/1999/xlink" width="40" zoomAndPan="magnify" viewBox="0 0 30 30.000001" height="40" preserveAspectRatio="xMidYMid meet" version="1.0"><path fill="#112d4e" d="M 22.074219 7.300781 C 22.242188 7.140625 22.433594 7.019531 22.648438 6.933594 C 22.863281 6.847656 23.085938 6.804688 23.316406 6.808594 C 23.550781 6.808594 23.773438 6.855469 23.988281 6.941406 C 24.199219 7.03125 24.390625 7.15625 24.554688 7.320312 C 24.722656 7.480469 24.851562 7.667969 24.941406 7.878906 C 25.035156 8.09375 25.085938 8.316406 25.089844 8.546875 C 25.097656 8.777344 25.058594 9.003906 24.976562 9.21875 C 24.898438 9.4375 24.777344 9.628906 24.621094 9.800781 L 15.117188 21.683594 C 14.953125 21.863281 14.761719 22 14.539062 22.101562 C 14.316406 22.199219 14.085938 22.25 13.84375 22.253906 C 13.601562 22.257812 13.367188 22.214844 13.140625 22.125 C 12.917969 22.035156 12.71875 21.902344 12.546875 21.730469 L 6.246094 15.429688 C 6.066406 15.265625 5.929688 15.070312 5.832031 14.851562 C 5.734375 14.628906 5.679688 14.398438 5.675781 14.15625 C 5.671875 13.914062 5.714844 13.679688 5.808594 13.453125 C 5.898438 13.230469 6.027344 13.03125 6.199219 12.859375 C 6.371094 12.691406 6.570312 12.558594 6.792969 12.46875 C 7.019531 12.378906 7.253906 12.332031 7.496094 12.339844 C 7.738281 12.34375 7.96875 12.394531 8.191406 12.492188 C 8.410156 12.589844 8.605469 12.730469 8.769531 12.90625 L 13.757812 17.890625 L 22.027344 7.351562 Z M 22.074219 7.300781 " fill-opacity="1" fill-rule="nonzero"/></svg>