<svg xmlns="http://www.w3.org/2000/svg" xmlns:xlink="http://www.w3.org/1999/xlink" width="40" zoomAndPan="magnify" viewBox="0 0 30 30.000001" height="40" preserveAspectRatio="xMidYMid meet" version="1.0"><defs><clipPath id="235dfd11d4"><path d="M 0.484375 0 L 29.515625 0 L 29.515625 29.03125 L 0.484375 29.03125 Z M 0.484375 0 " clip-rule="nonzero"/></clipPath></defs><g clip-path="url(#235dfd11d4)"><path fill="#ffffff" d="M 0.484375 0 L 29.515625 0 L 29.515625 29.03125 L 0.484375 29.03125 Z M 0.484375 0 " fill-opacity="1" fill-rule="nonzero"/><path fill="#ffffff" d="M 0.484375 0 L 29.515625 0 L 29.515625 29.03125 L 0.484375 29.03125 Z M 0.484375 0 " fill-opacity="1" fill-rule="nonzero"/></g><path fill="#112d4e" d="M 5.019531 21.773438 C 5.019531 21.523438 5.109375 21.308594 5.285156 21.132812 C 5.464844 20.957031 5.675781 20.867188 5.925781 20.867188 L 24.074219 20.867188 C 24.324219 20.867188 24.535156 20.957031 24.714844 21.132812 C 24.890625 21.308594 24.980469 21.523438 24.980469 21.773438 C 24.980469 22.023438 24.890625 22.238281 24.714844 22.414062 C 24.535156 22.59375 24.324219 22.679688 24.074219 22.679688 L 5.925781 22.679688 C 5.675781 22.679688 5.464844 22.59375 5.285156 22.414062 C 5.109375 22.238281 5.019531 22.023438 5.019531 21.773438 M 5.019531 14.515625 C 5.019531 14.265625 5.109375 14.050781 5.285156 13.875 C 5.464844 13.699219 5.675781 13.609375 5.925781 13.609375 L 24.074219 13.609375 C 24.324219 13.609375 24.535156 13.699219 24.714844 13.875 C 24.890625 14.050781 24.980469 14.265625 24.980469 14.515625 C 24.980469 14.765625 24.890625 14.980469 24.714844 15.15625 C 24.535156 15.335938 24.324219 15.421875 24.074219 15.421875 L 5.925781 15.421875 C 5.675781 15.421875 5.464844 15.335938 5.285156 15.15625 C 5.109375 14.980469 5.019531 14.765625 5.019531 14.515625 M 5.019531 7.257812 C 5.019531 7.007812 5.109375 6.792969 5.285156 6.617188 C 5.464844 6.4375 5.675781 6.351562 5.925781 6.351562 L 24.074219 6.351562 C 24.324219 6.351562 24.535156 6.4375 24.714844 6.617188 C 24.890625 6.792969 24.980469 7.007812 24.980469 7.257812 C 24.980469 7.507812 24.890625 7.722656 24.714844 7.898438 C 24.535156 8.078125 24.324219 8.164062 24.074219 8.164062 L 5.925781 8.164062 C 5.675781 8.164062 5.464844 8.078125 5.285156 7.898438 C 5.109375 7.722656 5.019531 7.507812 5.019531 7.257812 " fill-opacity="1" fill-rule="evenodd"/></svg>