<svg xmlns="http://www.w3.org/2000/svg" xmlns:xlink="http://www.w3.org/1999/xlink" width="40" zoomAndPan="magnify" viewBox="0 0 30 30.000001" height="40" preserveAspectRatio="xMidYMid meet" version="1.0"><defs><clipPath id="2d531b1230"><path d="M 0.484375 0 L 29.515625 0 L 29.515625 29.03125 L 0.484375 29.03125 Z M 0.484375 0 " clip-rule="nonzero"/></clipPath><clipPath id="394d19194b"><path d="M 1.355469 0.871094 L 28.933594 0.871094 L 28.933594 28.453125 L 1.355469 28.453125 Z M 1.355469 0.871094 " clip-rule="nonzero"/></clipPath></defs><g clip-path="url(#2d531b1230)"><path fill="#ffffff" d="M 0.484375 0 L 29.515625 0 L 29.515625 29.03125 L 0.484375 29.03125 Z M 0.484375 0 " fill-opacity="1" fill-rule="nonzero"/><path fill="#ffffff" d="M 0.484375 0 L 29.515625 0 L 29.515625 29.03125 L 0.484375 29.03125 Z M 0.484375 0 " fill-opacity="1" fill-rule="nonzero"/></g><g clip-path="url(#394d19194b)"><path fill="#112d4e" d="M 21.378906 18.511719 C 21.652344 18.140625 21.898438 17.753906 22.125 17.351562 C 22.347656 16.945312 22.546875 16.53125 22.71875 16.105469 C 22.890625 15.675781 23.035156 15.242188 23.152344 14.796875 C 23.273438 14.351562 23.363281 13.898438 23.421875 13.441406 C 23.484375 12.984375 23.519531 12.527344 23.523438 12.066406 C 23.527344 11.605469 23.503906 11.148438 23.449219 10.6875 C 23.398438 10.230469 23.316406 9.777344 23.207031 9.332031 C 23.097656 8.882812 22.960938 8.445312 22.796875 8.011719 C 22.632812 7.582031 22.441406 7.164062 22.226562 6.757812 C 22.011719 6.351562 21.769531 5.957031 21.503906 5.582031 C 21.238281 5.203125 20.953125 4.847656 20.640625 4.503906 C 20.332031 4.164062 20.003906 3.84375 19.652344 3.542969 C 19.304688 3.242188 18.9375 2.964844 18.550781 2.710938 C 18.167969 2.457031 17.769531 2.230469 17.355469 2.023438 C 16.941406 1.820312 16.519531 1.640625 16.082031 1.492188 C 15.648438 1.339844 15.207031 1.214844 14.753906 1.117188 C 14.304688 1.023438 13.851562 0.953125 13.390625 0.914062 C 12.929688 0.875 12.472656 0.863281 12.011719 0.882812 C 11.550781 0.898438 11.09375 0.945312 10.640625 1.019531 C 10.183594 1.097656 9.734375 1.199219 9.292969 1.328125 C 8.851562 1.460938 8.421875 1.617188 7.996094 1.800781 C 7.574219 1.988281 7.167969 2.195312 6.769531 2.433594 C 6.375 2.667969 5.996094 2.925781 5.632812 3.210938 C 5.265625 3.492188 4.921875 3.796875 4.597656 4.125 C 4.273438 4.449219 3.96875 4.792969 3.683594 5.160156 C 3.402344 5.523438 3.144531 5.902344 2.90625 6.296875 C 2.671875 6.695312 2.460938 7.105469 2.277344 7.527344 C 2.09375 7.949219 1.9375 8.378906 1.804688 8.824219 C 1.675781 9.265625 1.574219 9.710938 1.5 10.167969 C 1.425781 10.621094 1.378906 11.078125 1.359375 11.539062 C 1.34375 12 1.355469 12.460938 1.394531 12.917969 C 1.433594 13.378906 1.503906 13.832031 1.601562 14.285156 C 1.695312 14.734375 1.820312 15.175781 1.972656 15.613281 C 2.125 16.046875 2.300781 16.472656 2.507812 16.882812 C 2.710938 17.296875 2.941406 17.695312 3.195312 18.078125 C 3.449219 18.464844 3.726562 18.832031 4.027344 19.179688 C 4.328125 19.53125 4.648438 19.859375 4.988281 20.167969 C 5.332031 20.476562 5.691406 20.765625 6.066406 21.03125 C 6.445312 21.296875 6.835938 21.535156 7.242188 21.75 C 7.652344 21.96875 8.070312 22.15625 8.5 22.320312 C 8.929688 22.484375 9.371094 22.621094 9.816406 22.730469 C 10.265625 22.839844 10.71875 22.917969 11.175781 22.972656 C 11.632812 23.023438 12.09375 23.046875 12.554688 23.042969 C 13.015625 23.039062 13.472656 23.003906 13.929688 22.941406 C 14.386719 22.882812 14.835938 22.789062 15.28125 22.671875 C 15.726562 22.554688 16.164062 22.410156 16.589844 22.238281 C 17.019531 22.0625 17.433594 21.863281 17.835938 21.640625 C 18.238281 21.417969 18.625 21.167969 18.996094 20.894531 C 19.046875 20.964844 19.101562 21.027344 19.164062 21.089844 L 25.726562 27.65625 C 25.886719 27.816406 26.070312 27.941406 26.28125 28.027344 C 26.488281 28.113281 26.707031 28.15625 26.933594 28.15625 C 27.160156 28.15625 27.378906 28.113281 27.585938 28.027344 C 27.796875 27.941406 27.980469 27.816406 28.140625 27.65625 C 28.300781 27.5 28.421875 27.3125 28.511719 27.105469 C 28.597656 26.894531 28.640625 26.679688 28.640625 26.453125 C 28.640625 26.226562 28.597656 26.007812 28.511719 25.800781 C 28.425781 25.589844 28.300781 25.40625 28.140625 25.246094 L 21.574219 18.679688 C 21.515625 18.617188 21.449219 18.5625 21.378906 18.507812 Z M 21.820312 11.957031 C 21.820312 12.570312 21.757812 13.179688 21.640625 13.785156 C 21.519531 14.390625 21.339844 14.976562 21.105469 15.546875 C 20.871094 16.113281 20.582031 16.65625 20.238281 17.167969 C 19.894531 17.679688 19.507812 18.152344 19.070312 18.589844 C 18.636719 19.023438 18.164062 19.414062 17.652344 19.753906 C 17.136719 20.097656 16.597656 20.386719 16.027344 20.621094 C 15.460938 20.855469 14.875 21.035156 14.269531 21.15625 C 13.664062 21.273438 13.054688 21.335938 12.441406 21.335938 C 11.824219 21.335938 11.214844 21.273438 10.609375 21.15625 C 10.003906 21.035156 9.417969 20.855469 8.851562 20.621094 C 8.28125 20.386719 7.742188 20.097656 7.230469 19.753906 C 6.714844 19.414062 6.242188 19.023438 5.808594 18.589844 C 5.371094 18.152344 4.984375 17.679688 4.640625 17.167969 C 4.296875 16.65625 4.011719 16.113281 3.773438 15.546875 C 3.539062 14.976562 3.359375 14.390625 3.242188 13.785156 C 3.121094 13.179688 3.058594 12.570312 3.058594 11.957031 C 3.058594 11.339844 3.121094 10.730469 3.242188 10.125 C 3.359375 9.523438 3.539062 8.933594 3.773438 8.367188 C 4.011719 7.796875 4.296875 7.257812 4.640625 6.746094 C 4.984375 6.234375 5.371094 5.757812 5.808594 5.324219 C 6.242188 4.886719 6.714844 4.5 7.230469 4.15625 C 7.742188 3.816406 8.28125 3.527344 8.851562 3.289062 C 9.417969 3.054688 10.003906 2.875 10.609375 2.757812 C 11.214844 2.636719 11.824219 2.578125 12.441406 2.578125 C 13.054688 2.578125 13.664062 2.636719 14.269531 2.757812 C 14.875 2.875 15.460938 3.054688 16.027344 3.289062 C 16.597656 3.527344 17.136719 3.816406 17.652344 4.15625 C 18.164062 4.5 18.636719 4.886719 19.070312 5.324219 C 19.507812 5.757812 19.894531 6.234375 20.238281 6.746094 C 20.582031 7.257812 20.871094 7.796875 21.105469 8.367188 C 21.339844 8.933594 21.519531 9.523438 21.640625 10.125 C 21.757812 10.730469 21.820312 11.339844 21.820312 11.957031 " fill-opacity="1" fill-rule="nonzero"/></g></svg>